<?xml version="1.0" encoding="utf-8"?>
<!-- Generator: Adobe Illustrator 27.5.0, SVG Export Plug-In . SVG Version: 6.00 Build 0)  -->
<svg version="1.1" xmlns="http://www.w3.org/2000/svg" xmlns:xlink="http://www.w3.org/1999/xlink" x="0px" y="0px"
	 viewBox="0 0 2200 2200" style="enable-background:new 0 0 2200 2200;" xml:space="preserve">
<g id="background">
	<rect style="fill:#FFFFFF;" width="2200" height="2200"/>
</g>
<g id="Objects">
	<g>
		<g>
			<path style="fill:#42BADB;" d="M1722.327,858.327c0,211.471-105.476,398.31-266.694,510.762
				c-111.156,77.532-203.286,179.346-267.165,298.872c-28.836,53.956-48.845,99.763-62.438,135.134
				c-9.153,23.816-42.906,23.816-52.059,0c-14.443-37.58-36.126-86.94-67.944-145.337
				c-62.728-115.127-152.504-212.977-260.244-287.685c-165.851-115.003-273.101-308.568-267.93-526.849
				c8-337.728,285.881-608.049,623.703-607.222C1444.545,236.841,1722.327,515.141,1722.327,858.327z"/>
			<path style="fill:#3D9DD3;" d="M1722.324,858.331c0,211.465-105.471,398.305-266.687,510.757
				c-111.158,77.536-203.294,179.345-267.172,298.874c-28.829,53.958-48.841,99.764-62.432,135.136
				c-4.575,11.908-15.304,17.862-26.032,17.862V236.007h1.56C1444.547,236.844,1722.324,515.144,1722.324,858.331z"/>
			<circle style="fill:#FFFFFF;" cx="1100" cy="858.327" r="399.931"/>
			<path style="fill:#E9F0F4;" d="M1100,458.395c220.876,0,399.931,179.055,399.931,399.931S1320.876,1258.258,1100,1258.258
				V458.395z"/>
		</g>
		<ellipse style="fill:#CEDADD;" cx="1100" cy="1923.865" rx="345.928" ry="40.135"/>
	</g>
</g>
</svg>
